<svg xmlns="http://www.w3.org/2000/svg" width="18.849" height="18.846" viewBox="0 0 18.849 18.846">
  <g id="Group_1401" data-name="Group 1401" transform="translate(-69.948 -70.599)">
    <path id="Path_1766" data-name="Path 1766" d="M73.09,72.487c0-.234,0-.437,0-.64a1.256,1.256,0,0,1,2.511,0c0,.2,0,.405,0,.623h2.514c0-.183,0-.37,0-.557a1.258,1.258,0,1,1,2.513,0c0,.182,0,.364,0,.557h2.515c0-.22-.007-.446,0-.671a1.252,1.252,0,0,1,2.423-.392,1.732,1.732,0,0,1,.083.46c.014.195,0,.391,0,.615.085,0,.161,0,.236,0a15,15,0,0,1,1.626.042,1.494,1.494,0,0,1,1.276,1.495q.01,4.073,0,8.146c0,.227-.13.37-.32.365s-.307-.145-.307-.378q0-2.512,0-5.025v-.239H70.576V77.1q0,4.7,0,9.4a.957.957,0,0,0,1.053,1.06h8.5c.065,0,.131,0,.2,0a.312.312,0,0,1-.006.624c-.046,0-.092,0-.137,0H71.6a1.569,1.569,0,0,1-1.655-1.648q0-6.2,0-12.405a1.57,1.57,0,0,1,1.653-1.65Zm2.512.637c0,.218,0,.414,0,.61a1.256,1.256,0,1,1-2.512,0c0-.2,0-.4,0-.594a.237.237,0,0,0-.055-.022c-.5,0-.995-.006-1.492,0a.939.939,0,0,0-.965.97c0,.543,0,1.086,0,1.629v.528H88.165c0-.764.015-1.516-.006-2.267a.917.917,0,0,0-.911-.858c-.288-.007-.576,0-.864,0h-.73c0,.222.014.418,0,.612a1.8,1.8,0,0,1-.106.513,1.235,1.235,0,0,1-1.354.74,1.253,1.253,0,0,1-1.047-1.2c-.006-.219,0-.439,0-.654H80.629c0,.192,0,.374,0,.556a1.258,1.258,0,1,1-2.513.007c0-.187,0-.374,0-.565Zm-.628-.3c0-.307,0-.615,0-.922a.628.628,0,1,0-1.255-.011q-.005.912,0,1.825a.628.628,0,1,0,1.255-.009C74.976,73.409,74.974,73.115,74.974,72.82ZM80,72.8c0-.307,0-.615,0-.922a.628.628,0,1,0-1.255.007q-.005.912,0,1.825A.628.628,0,1,0,80,73.7C80,73.4,80,73.1,80,72.8Zm3.77,0c0,.3,0,.6,0,.9a.628.628,0,1,0,1.255.009q.005-.912,0-1.825a.628.628,0,1,0-1.255.01C83.768,72.2,83.77,72.5,83.77,72.8Z" fill="gray"/>
    <path id="Path_1767" data-name="Path 1767" d="M277.743,282.463a4.082,4.082,0,1,1,4.072-4.093A4.085,4.085,0,0,1,277.743,282.463Zm-.005-.627a3.454,3.454,0,1,0-3.461-3.453A3.464,3.464,0,0,0,277.737,281.836Z" transform="translate(-193.019 -193.018)" fill="gray"/>
    <path id="Path_1768" data-name="Path 1768" d="M119.08,222.526c-.209,0-.419,0-.628,0a.623.623,0,0,1-.625-.624c-.007-.314-.006-.628,0-.942a.617.617,0,0,1,.618-.629q.638-.011,1.276,0a.617.617,0,0,1,.615.613c.008.32.008.641,0,.961a.623.623,0,0,1-.628.621C119.5,222.53,119.289,222.526,119.08,222.526Zm.617-.637v-.918h-1.234v.918Z" transform="translate(-45.364 -141.874)" fill="gray"/>
    <path id="Path_1769" data-name="Path 1769" d="M190.965,222.542c-.209,0-.419,0-.628,0a.623.623,0,0,1-.624-.626q-.009-.471,0-.942a.62.62,0,0,1,.639-.628q.618-.007,1.236,0a.623.623,0,0,1,.634.635q.008.461,0,.922a.625.625,0,0,1-.65.639C191.371,222.545,191.168,222.543,190.965,222.542Zm.623-1.556h-1.232v.918h1.232Z" transform="translate(-113.481 -141.89)" fill="gray"/>
    <path id="Path_1770" data-name="Path 1770" d="M262.839,220.359c.209,0,.419,0,.628,0a.623.623,0,0,1,.627.622c.007.32.008.641,0,.961a.617.617,0,0,1-.616.612q-.638.011-1.276,0a.618.618,0,0,1-.616-.612c-.008-.327-.009-.654,0-.981a.615.615,0,0,1,.605-.6C262.407,220.353,262.623,220.359,262.839,220.359Zm.615,1.561V221h-1.232v.918Z" transform="translate(-181.583 -141.905)" fill="gray"/>
    <path id="Path_1771" data-name="Path 1771" d="M334.758,222.533c-.209,0-.419,0-.628,0a.625.625,0,0,1-.633-.637q-.008-.461,0-.922a.62.62,0,0,1,.631-.637c.419-.006.837-.006,1.256,0a.62.62,0,0,1,.623.626q.01.471,0,.942a.624.624,0,0,1-.641.628C335.164,222.536,334.961,222.533,334.758,222.533Zm.608-.636v-.925h-1.23v.925Z" transform="translate(-249.726 -141.881)" fill="gray"/>
    <path id="Path_1772" data-name="Path 1772" d="M119.065,274.264c.209,0,.419,0,.628,0a.623.623,0,0,1,.626.623c.007.32.008.641,0,.961a.617.617,0,0,1-.617.611q-.638.011-1.276,0a.618.618,0,0,1-.616-.612c-.008-.327-.009-.654,0-.981a.615.615,0,0,1,.606-.6C118.633,274.258,118.849,274.265,119.065,274.264Zm-.614.636v.918h1.232V274.9Z" transform="translate(-45.347 -192.983)" fill="gray"/>
    <path id="Path_1773" data-name="Path 1773" d="M190.952,274.264c.209,0,.419,0,.628,0a.623.623,0,0,1,.626.623c.007.32.008.641,0,.961a.617.617,0,0,1-.617.611q-.638.011-1.276,0a.618.618,0,0,1-.616-.612c-.008-.327-.009-.654,0-.981a.615.615,0,0,1,.606-.6C190.52,274.258,190.736,274.265,190.952,274.264Zm.624.64h-1.239v.914h1.239Z" transform="translate(-113.465 -192.983)" fill="gray"/>
    <path id="Path_1774" data-name="Path 1774" d="M119.089,330.361c-.2,0-.393,0-.589,0a.628.628,0,0,1-.659-.651q-.006-.451,0-.9a.622.622,0,0,1,.645-.643q.608-.007,1.217,0a.625.625,0,0,1,.649.64q.008.461,0,.922a.623.623,0,0,1-.635.634C119.508,330.364,119.3,330.361,119.089,330.361Zm.622-.637v-.918h-1.232v.918Z" transform="translate(-45.38 -244.055)" fill="gray"/>
    <path id="Path_1775" data-name="Path 1775" d="M190.979,328.173c.209,0,.419,0,.628,0a.623.623,0,0,1,.625.625q.01.471,0,.942a.622.622,0,0,1-.639.63q-.618.008-1.236,0a.623.623,0,0,1-.634-.635q-.008-.461,0-.922a.623.623,0,0,1,.649-.639C190.574,328.17,190.776,328.173,190.979,328.173Zm.61,1.563v-.924h-1.228v.924Z" transform="translate(-113.49 -244.065)" fill="gray"/>
    <path id="Path_1776" data-name="Path 1776" d="M262.2,274.872v.926c.045.018.089.031.129.052a.291.291,0,0,1,.17.34.3.3,0,0,1-.309.251.623.623,0,0,1-.62-.588c-.012-.34-.012-.681,0-1.02a.608.608,0,0,1,.6-.586c.419-.009.838-.006,1.256,0a.312.312,0,0,1,.337.308.316.316,0,0,1-.348.317C263.014,274.875,262.615,274.872,262.2,274.872Z" transform="translate(-181.562 -192.963)" fill="gray"/>
    <path id="Path_1777" data-name="Path 1777" d="M309.825,327.883c.272-.274.524-.529.778-.783q.8-.8,1.61-1.608c.177-.176.357-.188.5-.042s.12.313-.05.483q-1.281,1.285-2.566,2.566a.326.326,0,0,1-.541,0q-.62-.615-1.234-1.235c-.169-.17-.183-.342-.048-.483s.319-.133.5.043C309.115,327.169,309.459,327.517,309.825,327.883Z" transform="translate(-225.739 -241.391)" fill="gray"/>
  </g>
</svg>
