<svg xmlns="http://www.w3.org/2000/svg" width="16.286" height="18.513" viewBox="0 0 16.286 18.513">
  <path id="Icon_awesome-user" data-name="Icon awesome-user" d="M7.793,8.906A4.453,4.453,0,1,0,3.34,4.453,4.453,4.453,0,0,0,7.793,8.906ZM10.91,10.02h-.581a6.056,6.056,0,0,1-5.072,0H4.676A4.677,4.677,0,0,0,0,14.7v1.447a1.67,1.67,0,0,0,1.67,1.67H13.916a1.67,1.67,0,0,0,1.67-1.67V14.7A4.677,4.677,0,0,0,10.91,10.02Z" transform="translate(0.35 0.35)" fill="none" stroke="gray" stroke-width="0.7"/>
</svg>
