<svg xmlns="http://www.w3.org/2000/svg" xmlns:xlink="http://www.w3.org/1999/xlink" width="132.857" height="125.919" viewBox="0 0 132.857 125.919">
  <defs>
    <clipPath id="clip-path">
      <path id="Path_1789" data-name="Path 1789" d="M320.625,153.135c-1.882.071-11.087.071-11.962.27l-1.458,51.68v.434h-6.679c-1.013-.044-1.937-.083-2.614-.1l-18.613-.539c-1.612,0-8.264-.4-9.139.132.066.6.737.875.875,1.546.2,1.211-.672,1.211,1.678,2.96a7.95,7.95,0,0,1,1.414,1.073c1.81,1.546,3.086,3.3,4.968,4.77,1.816,1.414,3.632,2.756,5.513,4.171,6.855,5.172,3.961,9.474,5.843,13.706a2.643,2.643,0,0,0,.864,1.117,4.134,4.134,0,0,0,.611.358c.182.088.38.176.589.28h15.069c.022-.071.044-.137.071-.209.011-.022.017-.049.028-.071.666-1.882,1.6-2.091,3.064-3.153.171-.137.3-.248.4-.347a19.818,19.818,0,0,1,6.856-1.1l2.674.556c.127.424-.017.957.353,1.293a34.914,34.914,0,0,1,3.961,1.277,6.4,6.4,0,0,1,1.837,1.474c.083.093.159.187.237.28h58.04c-.044-.1-.093-.193-.137-.28-.16-.325-.325-.616-.506-1-.2-.539.071-1.079.137-1.612.154-1.144.2-1.645.76-2.03.8-.468,5.546-.363,7.191-.314.353.011.561.022.561.022,1.084.093,2.168.1,3.246.1,1.144,0,2.553.2,3.362-.4.4-.27.738-.539,1.144-.8a8.326,8.326,0,0,0,1.139-.677c-.2-.534-.875-.468-.8-1.678v-4.5c0-2.218,1.947-3.428,1.81-5.783-.066-.869-.4-2.146-.534-3.224a17.048,17.048,0,0,0-.539-3.29c-.4-1.144-1.21-1.078-1.948-1.816-.809-.737-1.144-1.947-1.881-2.823-.605-.671-1.948-.27-2.019-4.77a20.176,20.176,0,0,0-.066-4.033c-.2-1.21.473-2.487.473-3.763-.071-1.342-.2-2.756-.27-4.1a16.421,16.421,0,0,0-.2-1.948c-.2-.875-.606-.809-1.342-.473a7.147,7.147,0,0,1-3.632.539c-3.356-.27-3.29.27-4.9-1.612A8.3,8.3,0,0,0,385,183.715a13.788,13.788,0,0,0-2.823-1.612c-2.151-.809-1.612-.27-3.356.132-1.414.4-2.69-.132-3.5.875a8.591,8.591,0,0,1-2.487,1.882,10.959,10.959,0,0,1-3.56.869c-4.5.677-3.494.875-4.836-.671a12.482,12.482,0,0,0-3.9-2.751c-1.474-.743-1.744.132-3.9.132a15.86,15.86,0,0,1-3.224-.27c-.743-.27-2.217-1.816-3.632-1.744-.4.066-1.21,1.073-4.638.468a13.432,13.432,0,0,1-6.784-3.7,15.927,15.927,0,0,1-1.881-1.744.065.065,0,0,0,.066-.066l.269-.137a6.989,6.989,0,0,0,.066-1.678c.066-3.494.336-19.889-.066-20.3-.238-.268-3.834-.335-7.6-.335-3.728,0-7.624.065-8.6.065" transform="translate(-270.161 -153.07)" fill="none"/>
    </clipPath>
    <radialGradient id="radial-gradient" cx="0.5" cy="0.769" r="0.79" gradientTransform="matrix(0.616, 0, 0, -1, -0.281, 5.699)" gradientUnits="objectBoundingBox">
      <stop offset="0" stop-color="#d2733d"/>
      <stop offset="0.176" stop-color="#d2733d"/>
      <stop offset="0.278" stop-color="#ce6e3a"/>
      <stop offset="0.667" stop-color="#c55f35"/>
      <stop offset="1" stop-color="#c25b33"/>
    </radialGradient>
    <radialGradient id="radial-gradient-2" cx="0.5" cy="0.768" r="0.79" gradientTransform="matrix(0.617, 0, 0, -1, -0.281, 5.699)" gradientUnits="objectBoundingBox">
      <stop offset="0" stop-color="#d2733d"/>
      <stop offset="1" stop-color="#4d4e4e"/>
    </radialGradient>
    <clipPath id="clip-path-2">
      <path id="Path_1791" data-name="Path 1791" d="M386.053,270.414a32.745,32.745,0,0,0,2.431,12.393,2.554,2.554,0,0,1,1.051-.536,9.5,9.5,0,0,1,7.088.56,2.262,2.262,0,0,1,1.26,2.313H448.31a32.871,32.871,0,1,0-62.257-14.731" transform="translate(-386.053 -237.546)" fill="none"/>
    </clipPath>
    <radialGradient id="radial-gradient-3" cx="0.5" cy="0.88" r="0.877" gradientTransform="matrix(0.724, 0, 0, -1, -0.585, 8.528)" gradientUnits="objectBoundingBox">
      <stop offset="0" stop-color="#ffe715"/>
      <stop offset="0.106" stop-color="#fee114"/>
      <stop offset="0.241" stop-color="#fdd113"/>
      <stop offset="0.393" stop-color="#fbb712"/>
      <stop offset="0.556" stop-color="#f99210"/>
      <stop offset="0.632" stop-color="#f87f0f"/>
      <stop offset="1" stop-color="#c35c33"/>
    </radialGradient>
  </defs>
  <g id="Group_1457" data-name="Group 1457" transform="translate(-238.164 -153.07)">
    <path id="Path_1787" data-name="Path 1787" d="M346.239,379.327c-.011.022-.017.049-.027.071-.027.071-.049.137-.072.209a4.58,4.58,0,0,0-.17.594,9.1,9.1,0,0,0-.093,1.953c0,1.48-1.409,1.816-2.421,2.487-.737.468-2.014,1.678-3.29,1.474-1.612-.2-2.553-1.744-3.632-2.553l-1.947-1.612c-.8-.566-1.546-1.238-2.41-1.75q-.231-.14-.478-.264c-.226-.132-.429-.236-.627-.33s-.407-.193-.589-.281Z" transform="translate(-70.551 -144.614)" fill="#3e4f53" fill-rule="evenodd"/>
    <path id="Path_1788" data-name="Path 1788" d="M486.324,382.353a12.054,12.054,0,0,1-1.816,2.019c-.671.671-3.087,2.014-4.368,3.092a28.133,28.133,0,0,1-4.3,3.158c-.743.534-1.48,1.007-2.283,1.474-3.164,1.882-4.368,1.414-6.586,4.7a22.952,22.952,0,0,0-2.69,4.842c-.132.468-.132,1.007-.27,1.612a8.242,8.242,0,0,0,.473,4.77c.336.875.8,1.546,1.139,2.553a21.188,21.188,0,0,1,.743,3.092c.27,1.546,2.685,4.908,2.889,8.264.2,3.3-3.224.809-4.3.137-2.757-1.75-3.961-2.96-7.526-3.7-3.224-.671-6.317,1.144-10.415-3.967a19.153,19.153,0,0,1-3.829-6.718c-.539-2.014,0-4.77-1.546-6.448-1.342-1.618-2.085.941-4.638-3.3a36.037,36.037,0,0,0-2.08-3.092c-1.953-2.823-2.085-4.3-3.362-7.323a43.251,43.251,0,0,0-3.494-7.059,2.864,2.864,0,0,0-.181-.27c-.132-.2-.28-.4-.434-.594-.077-.093-.154-.187-.237-.28H485.35c.044.088.093.182.137.28.083.176.165.369.253.594s.16.457.248.743Z" transform="translate(-132.377 -144.614)" fill="#3e4f53" fill-rule="evenodd"/>
    <g id="Group_1451" data-name="Group 1451" transform="translate(238.164 153.07)">
      <g id="Group_1450" data-name="Group 1450" clip-path="url(#clip-path)">
        <rect id="Rectangle_2380" data-name="Rectangle 2380" width="132.988" height="81.924" transform="translate(0)" fill="url(#radial-gradient)"/>
      </g>
    </g>
    <path id="Path_1790" data-name="Path 1790" d="M402.005,228h0a8.3,8.3,0,0,1-1.139.677c-.407.264-.743.534-1.145.8a3.207,3.207,0,0,1-1.909.434c-.489,0-.992-.033-1.452-.033-1.079,0-2.162-.006-3.246-.1,0,0-.209-.011-.561-.022-.629-.019-1.71-.046-2.852-.046a15.074,15.074,0,0,0-4.34.359c-.561.385-.605.886-.759,2.03a10.016,10.016,0,0,0-.209,1.19,1.207,1.207,0,0,0,.071.421c.182.385.346.677.506,1,.044.088.094.182.138.281h-58.04c-.077-.093-.154-.187-.237-.281a6.408,6.408,0,0,0-1.837-1.474,34.94,34.94,0,0,0-3.962-1.276c-.368-.336-.226-.87-.352-1.293l-2.674-.556h-.193a19.237,19.237,0,0,0-6.662,1.1c-.1.1-.231.209-.4.346-1.464,1.062-2.4,1.271-3.065,3.153-.011.022-.017.05-.027.071-.028.072-.05.138-.072.209h-15.07c-.209-.1-.407-.193-.589-.281a4.153,4.153,0,0,1-.611-.358,2.641,2.641,0,0,1-.864-1.117c-1.881-4.231,1.013-8.534-5.843-13.706-1.881-1.414-3.7-2.756-5.513-4.17-1.881-1.475-3.158-3.224-4.968-4.77a7.962,7.962,0,0,0-1.414-1.073c-1.469-1.094-1.679-1.5-1.679-1.953,0-.181.034-.368.034-.609a2.418,2.418,0,0,0-.032-.4c-.138-.671-.809-.941-.875-1.546a9.72,9.72,0,0,1,3.122-.277c2.261,0,5.049.145,6.017.145l18.613.539c.677.017,1.6.055,2.614.1h6.679v-.435l1.458-51.68c.875-.2,10.079-.2,11.961-.27.971,0,4.863-.065,8.589-.065,3.77,0,7.371.067,7.609.335a43.811,43.811,0,0,1,.216,6.5c0,5.12-.111,11.724-.15,13.795,0,.168.017.52.017.864a2.5,2.5,0,0,1-.083.814l-.27.138a.065.065,0,0,1-.066.066,15.893,15.893,0,0,0,1.881,1.744,13.426,13.426,0,0,0,6.784,3.7,11.384,11.384,0,0,0,1.972.193,5.3,5.3,0,0,0,2.666-.66l.1,0c1.385,0,2.81,1.483,3.536,1.747a15.888,15.888,0,0,0,3.224.27,21.79,21.79,0,0,0,2.816-.431,2.343,2.343,0,0,1,1.079.3,12.492,12.492,0,0,1,3.9,2.751c.745.858.766,1.179,1.407,1.179.514,0,1.426-.206,3.429-.507a10.946,10.946,0,0,0,3.56-.869,8.581,8.581,0,0,0,2.487-1.882c.809-1.007,2.085-.473,3.5-.875,1.083-.249,1.285-.552,1.8-.552a4.92,4.92,0,0,1,1.558.42A13.78,13.78,0,0,1,385,183.716a8.324,8.324,0,0,1,1.144,1.007c1.612,1.882,1.546,1.342,4.9,1.612.315.027.6.04.862.04a7.241,7.241,0,0,0,2.769-.579,2.005,2.005,0,0,1,.751-.231c.286,0,.475.189.591.7a16.429,16.429,0,0,1,.2,1.948c.066,1.342.2,2.756.27,4.1,0,1.112-.51,2.225-.509,3.293a2.89,2.89,0,0,0,.036.47,9.62,9.62,0,0,1,.14,1.646c0,.738-.074,1.417-.074,2.387.071,4.5,1.414,4.1,2.019,4.77.737.875,1.073,2.085,1.881,2.823.737.737,1.546.671,1.948,1.816a17.044,17.044,0,0,1,.539,3.29c.132,1.078.468,2.355.534,3.224q.007.12.007.237c0,2.2-1.817,3.4-1.817,5.546v4.5c0,.06-.005.117-.005.171,0,1.034.62,1,.809,1.507h0c-.188-.507-.809-.473-.809-1.507,0-.054,0-.111.005-.171v-4.5c0-2.142,1.817-3.344,1.817-5.546q0-.116-.007-.237c-.066-.869-.4-2.146-.534-3.224a17.044,17.044,0,0,0-.539-3.29c-.4-1.145-1.211-1.079-1.948-1.816-.809-.737-1.144-1.948-1.881-2.823-.605-.671-1.948-.27-2.019-4.77,0-.97.074-1.649.074-2.387a9.654,9.654,0,0,0-.14-1.646,2.846,2.846,0,0,1-.036-.47c0-1.069.509-2.181.509-3.293-.071-1.342-.2-2.756-.27-4.1a16.429,16.429,0,0,0-.2-1.948c-.117-.515-.306-.7-.591-.7a2.005,2.005,0,0,0-.751.231,7.241,7.241,0,0,1-2.769.579c-.263,0-.547-.013-.862-.04-3.356-.27-3.29.27-4.9-1.612A8.324,8.324,0,0,0,385,183.716a13.78,13.78,0,0,0-2.823-1.612,4.92,4.92,0,0,0-1.558-.42c-.513,0-.716.3-1.8.552-1.414.4-2.69-.132-3.5.875a8.581,8.581,0,0,1-2.487,1.882,10.946,10.946,0,0,1-3.56.869c-2,.3-2.915.507-3.429.507-.641,0-.662-.321-1.407-1.179a12.492,12.492,0,0,0-3.9-2.751,2.343,2.343,0,0,0-1.079-.3,21.79,21.79,0,0,1-2.816.431,15.888,15.888,0,0,1-3.224-.27c-.726-.263-2.151-1.747-3.536-1.747l-.1,0a5.3,5.3,0,0,1-2.666.66,11.384,11.384,0,0,1-1.972-.193,13.426,13.426,0,0,1-6.784-3.7,15.893,15.893,0,0,1-1.881-1.744.065.065,0,0,0,.066-.066l.27-.138a2.5,2.5,0,0,0,.083-.814c0-.344-.017-.7-.017-.864.039-2.071.15-8.674.15-13.795a43.811,43.811,0,0,0-.216-6.5c-.238-.268-3.839-.335-7.609-.335-3.727,0-7.618.065-8.589.065-1.882.072-11.087.072-11.961.27l-1.458,51.68v.435h-6.679c-1.013-.044-1.937-.083-2.614-.1l-18.613-.539c-.969,0-3.756-.145-6.017-.145a9.72,9.72,0,0,0-3.122.277c.066.605.737.875.875,1.546a2.418,2.418,0,0,1,.032.4c0,.241-.034.428-.034.609,0,.449.211.859,1.679,1.953a7.962,7.962,0,0,1,1.414,1.073c1.81,1.546,3.087,3.3,4.968,4.77,1.816,1.414,3.632,2.756,5.513,4.17,6.856,5.172,3.962,9.475,5.843,13.706a2.641,2.641,0,0,0,.864,1.117,4.153,4.153,0,0,0,.611.358c.182.088.38.176.589.281h15.07c.022-.071.044-.137.072-.209.011-.022.016-.049.027-.071.666-1.881,1.6-2.091,3.065-3.153.17-.137.3-.248.4-.346a19.237,19.237,0,0,1,6.662-1.1h.193l2.674.556c.127.424-.016.957.352,1.293a34.94,34.94,0,0,1,3.962,1.276,6.408,6.408,0,0,1,1.837,1.474c.083.094.159.187.237.281h58.04c-.044-.1-.094-.193-.138-.281-.159-.324-.324-.616-.506-1a1.207,1.207,0,0,1-.071-.421,10.016,10.016,0,0,1,.209-1.19c.154-1.145.2-1.645.759-2.03a15.074,15.074,0,0,1,4.34-.359c1.141,0,2.223.027,2.852.046.352.011.561.022.561.022,1.084.093,2.168.1,3.246.1.46,0,.963.033,1.452.033a3.207,3.207,0,0,0,1.909-.434c.4-.27.737-.539,1.145-.8a8.3,8.3,0,0,0,1.139-.677Z" transform="translate(-31.997)" fill="url(#radial-gradient-2)"/>
    <g id="Group_1453" data-name="Group 1453" transform="translate(279.983 183.553)">
      <g id="Group_1452" data-name="Group 1452" clip-path="url(#clip-path-2)">
        <rect id="Rectangle_2381" data-name="Rectangle 2381" width="65.736" height="47.599" transform="translate(0 0)" fill="url(#radial-gradient-3)"/>
      </g>
    </g>
    <path id="Path_1792" data-name="Path 1792" d="M430.025,348.2c-1.645-.049-6.393-.154-7.191.314-.561.385-.605.886-.76,2.03-.066.534-.336,1.073-.137,1.612.182.385.347.677.506,1,.044.088.093.182.137.281.083.176.165.368.253.594H364.975c-.132-.2-.281-.4-.435-.594-.077-.094-.154-.187-.236-.281a6.415,6.415,0,0,0-1.838-1.474,34.937,34.937,0,0,0-3.961-1.277c-.369-.336-.226-.869-.352-1.293l-2.674-.556a19.813,19.813,0,0,0-6.856,1.1c-.1.1-.231.209-.4.346-1.464,1.062-2.4,1.271-3.065,3.153-.011.022-.017.049-.027.071-.027.071-.049.137-.071.209a4.533,4.533,0,0,0-.171.594H331.094q-.231-.14-.478-.264c-.226-.132-.429-.237-.627-.33s-.407-.193-.589-.281a4.133,4.133,0,0,1-.611-.358c12.451-8.754,32.23-14.415,54.508-14.415,18.08,0,34.525,3.73,46.728,9.816" transform="translate(-69.469 -118.447)" fill="#498078"/>
    <path id="Path_1793" data-name="Path 1793" d="M447.8,279.044h19.86l1.317-3.6H449.007Z" transform="translate(-145.533 -78.219)" fill="#fff" fill-rule="evenodd"/>
    <rect id="Rectangle_2382" data-name="Rectangle 2382" width="4.529" height="32.772" transform="translate(310.387 190.703)" fill="#fff"/>
  </g>
</svg>
