<svg xmlns="http://www.w3.org/2000/svg" width="11.551" height="17.596" viewBox="0 0 11.551 17.596">
  <path id="Path_1778" data-name="Path 1778" d="M124.564,76.356a.432.432,0,0,1-.175-.4q.007-3.4,0-6.8v-.221c-.1,0-.183,0-.267,0a.269.269,0,0,1-.281-.283q-.007-.679,0-1.357a.268.268,0,0,1,.282-.282c.08,0,.16,0,.266,0v-.187c0-.962.007-1.925,0-2.887a1,1,0,0,1,.347-.822c.035-.03.063-.067.1-.1a.36.36,0,0,0,.152-.432.7.7,0,0,1,.2-.694c.142-.149.285-.3.438-.437a.821.821,0,0,1,1.165,1.154,5.889,5.889,0,0,1-.461.462.771.771,0,0,1-.785.166.177.177,0,0,0-.208.054c-.393.387-.394.386-.394.933V67h1.1v-.411q0-.945,0-1.89a1.106,1.106,0,0,1,.918-1.157c.428-.1.855-.212,1.282-.319.01,0,.018-.012.044-.03-.034-.042-.067-.084-.1-.123a1.879,1.879,0,0,1-.491-1.285,12.177,12.177,0,0,1,.038-1.423,1.909,1.909,0,0,1,3.769.006,10.43,10.43,0,0,1,.023,1.628,1.723,1.723,0,0,1-.491,1.091c-.029.032-.055.067-.1.12l1.177.3c.089.022.178.043.266.068a1.087,1.087,0,0,1,.812,1.065c0,.722,0,1.443,0,2.165V67h1.1V66.81c0-.951,0-1.9,0-2.853a.533.533,0,0,0-.2-.466.861.861,0,0,1-.122-.121.3.3,0,0,0-.361-.119.731.731,0,0,1-.729-.2c-.145-.138-.289-.279-.424-.426a.814.814,0,0,1-.006-1.121.83.83,0,0,1,1.123-.074,4.371,4.371,0,0,1,.52.523.754.754,0,0,1,.134.729.175.175,0,0,0,.044.21c.637.6.563.608.564,1.4q0,1.254,0,2.509v.205c.1,0,.181,0,.265,0a.268.268,0,0,1,.283.281q.008.679,0,1.358a.269.269,0,0,1-.281.283c-.08,0-.16,0-.267,0v.2q0,3.411,0,6.822a.434.434,0,0,1-.175.4Zm7.8-.558c0-.344,0-.681,0-1.017a1.323,1.323,0,0,0-.008-.189.805.805,0,0,0-.636-.684,2.347,2.347,0,0,0-.427-.025.281.281,0,0,1-.284-.18.272.272,0,0,1,.081-.311c.065-.065.131-.128.193-.2a.92.92,0,0,0-.09-1.356c-.092-.077-.191-.147-.287-.219l-1.293-.97c-.54.407-1.08.795-1.6,1.21a.9.9,0,0,0-.075,1.33,1.417,1.417,0,0,1,.222.237.372.372,0,0,1,.042.281.389.389,0,0,1-.231.166,1.083,1.083,0,0,1-.29.008.815.815,0,0,0-.8.671,2.5,2.5,0,0,0-.017.428c0,.272,0,.545,0,.817Zm.55,0h1.362V73.067a.318.318,0,0,0-.046-.009c-.326,0-.653,0-.979,0-.237,0-.33-.1-.337-.333-.009-.3-.013-.6-.028-.893a1.272,1.272,0,0,0-.558-1.035c-.87-.593-1.75-1.171-2.63-1.75a.183.183,0,0,0-.163,0q-1.319.869-2.63,1.749a1.155,1.155,0,0,0-.524.815c-.047.356-.047.718-.061,1.078-.011.283-.092.369-.372.369h-.993v2.736h1.363c0-.368,0-.723,0-1.078a1.377,1.377,0,0,1,.932-1.31c.04-.014.078-.033.118-.05a1.489,1.489,0,0,1,.357-1.97l1.7-1.28a.285.285,0,0,1,.378,0c.581.437,1.165.87,1.741,1.313a1.384,1.384,0,0,1,.483.733,1.49,1.49,0,0,1-.166,1.2.631.631,0,0,0,.068.035,1.371,1.371,0,0,1,.984,1.392C132.916,75.114,132.915,75.446,132.915,75.8ZM132.64,67v-.131c0-.733,0-1.466,0-2.2a.55.55,0,0,0-.464-.591c-.476-.123-.953-.243-1.431-.357a1.751,1.751,0,0,0-.3-.018c0,.548.006,1.068-.005,1.589a.382.382,0,0,1-.12.279c-.373.237-.757.483-1.195.119a.606.606,0,0,0-.137-.07.311.311,0,0,1-.194-.313c0-.406,0-.813,0-1.22V63.7a2.842,2.842,0,0,0-.339.039c-.456.11-.91.225-1.364.341a.561.561,0,0,0-.5.634q0,1.065,0,2.13V67Zm2.191.562H124.4v.8h10.429ZM124.949,72.5h.841c0-.195,0-.382,0-.57a1.94,1.94,0,0,1,.957-1.7c.6-.386,1.183-.783,1.774-1.175.045-.03.088-.064.15-.109h-3.722Zm5.6-3.562c.083.058.128.092.174.123.586.389,1.169.783,1.76,1.165a1.95,1.95,0,0,1,.963,1.714c0,.186,0,.372,0,.556h.834V68.937Zm-2.3-7.7c0,.207,0,.4,0,.584a1.374,1.374,0,0,0,2.486.765,1.971,1.971,0,0,0,.253-1.349Zm2.735-.566a1.36,1.36,0,1,0-2.72,0Zm-1.636,3.041c0,.46,0,.9,0,1.342a.313.313,0,0,0,.279.259.308.308,0,0,0,.271-.267q0-.464,0-.927v-.406Zm4.4-1.238c-.026-.078-.028-.132-.057-.161a6.844,6.844,0,0,0-.5-.491.227.227,0,0,0-.312.038.23.23,0,0,0-.051.324,3.676,3.676,0,0,0,.494.492.3.3,0,0,0,.267,0C133.654,62.644,133.693,62.54,133.737,62.479Zm-7.29-.472c-.035-.041-.085-.148-.164-.179a.337.337,0,0,0-.28.035,2.342,2.342,0,0,0-.423.423.334.334,0,0,0-.031.283.325.325,0,0,0,.223.15C125.945,62.747,126.449,62.244,126.447,62.007Z" transform="translate(-123.84 -58.76)" fill="gray"/>
</svg>
