<svg xmlns="http://www.w3.org/2000/svg" width="19.805" height="19.806" viewBox="0 0 19.805 19.806">
  <path id="Path_1303" data-name="Path 1303" d="M1425.105,1195.329v.448a.577.577,0,0,0-.032.085,1.743,1.743,0,0,1-1.737,1.447h-.28v.253q0,2.7,0,5.408a2.054,2.054,0,0,1-2.14,2.135q-1.418,0-2.835,0c-.487,0-.693-.205-.693-.689q0-2.145,0-4.29a.943.943,0,0,0-1.025-1.019c-.529,0-1.058.014-1.585,0a1,1,0,0,0-1.067,1.063c.022,1.429.008,2.859.006,4.289a.576.576,0,0,1-.64.649c-.976,0-1.952,0-2.928,0a2.283,2.283,0,0,1-.516-.058,2.036,2.036,0,0,1-1.582-2.04c0-1.822,0-3.643,0-5.465v-.208a.307.307,0,0,0-.06-.02c-.093,0-.187,0-.28,0a1.716,1.716,0,0,1-1.513-.958,3.858,3.858,0,0,1-.2-.536v-.522a2.649,2.649,0,0,1,.86-1.335q3.551-3.532,7.083-7.083a2.677,2.677,0,0,1,1.347-.874h.523a2.641,2.641,0,0,1,1.333.861q3.545,3.562,7.108,7.107A2.548,2.548,0,0,1,1425.105,1195.329Z" transform="translate(-1405.65 -1185.65)" fill="none" stroke="#ed7d31" stroke-width="0.7"/>
</svg>
